<?xml version="1.0" encoding="utf-8"?>
<!-- Generator: Adobe Illustrator 22.1.0, SVG Export Plug-In . SVG Version: 6.00 Build 0)  -->
<svg version="1.1" id="Layer_1" xmlns="http://www.w3.org/2000/svg" xmlns:xlink="http://www.w3.org/1999/xlink" x="0px" y="0px"
	 viewBox="0 0 101.9 102.1" style="enable-background:new 0 0 101.9 102.1;" xml:space="preserve">
<style type="text/css">
	.st0{fill:none;stroke:#000000;stroke-miterlimit:10;}
</style>
<g>
	<path class="st0" d="M19.5,102.1c-1.6,0-2.6-1.2-2.4-2.8c1.1-8.3,2.4-15.5,4.4-19.2c-7-0.5-11-7.3-6.2-14.5v-4l2.7,1.8
		c7.3,0.8,12.5,0,15.2-2.9c1.3-1.3,1.7-3.1,1.2-4.5c-2.5-5.7-10.2-6.3-22.3-2.9l-0.9,3.1l-2.7-3.1C2.4,54.9,0.9,50.3,2,42.2
		c-6.4-9.3,3.3-16.6,18.3-15.7c0.4-5.5,4.3-10,13.3-13.2c4.8-15.4,27.6-16,59.7-9c0.8,0.2,1.2,0.9,1,1.8c-0.2,1-0.5,2.2-0.7,3.3
		c-0.3,1.2,0.2,2.3,1.2,2.8c2.1,0.9,4,1.9,5.6,2.9c0.8,0.5,1.3,1.4,1.3,2.5c0,10.5,0.2,67.6,0.2,67.6c0,9.2-7.5,16.7-16.8,16.7
		L19.5,102.1z M33.3,26.1c0-0.1,0-0.2,0-0.2c0.1-0.1,0.2-0.1,0.2-0.1c1.6,0,6.7,0,8.3,0c0.1,0,0.2,0.1,0.2,0.1c0,0.1,0,0.2,0,0.3
		c-0.8,1.4-1.2,2.6-3,3.4c-0.4,0.2-0.7,0.2-1,0.1C35.7,28.7,34.3,27.4,33.3,26.1z"/>
</g>
</svg>
