<?xml version="1.0" encoding="utf-8"?>
<!-- Generator: Adobe Illustrator 22.1.0, SVG Export Plug-In . SVG Version: 6.00 Build 0)  -->
<svg version="1.1" id="Layer_1" xmlns="http://www.w3.org/2000/svg" xmlns:xlink="http://www.w3.org/1999/xlink" x="0px" y="0px"
	 viewBox="0 0 170.1 170.1" style="enable-background:new 0 0 170.1 170.1;" xml:space="preserve">
<g>
	<g>
		<path d="M136.2,1c18.2,0,33,14.8,33,33v102c0,18.2-14.8,33-33,33h-102c-18.2,0-33-14.8-33-33V34c0-18.2,14.8-33,33-33H136.2
			 M136.2,0h-102c-18.7,0-34,15.3-34,34v102c0,18.7,15.3,34,34,34h102c18.7,0,34-15.3,34-34V34C170.3,15.3,154.9,0,136.2,0L136.2,0z
			"/>
	</g>
</g>
</svg>
