<svg xmlns="http://www.w3.org/2000/svg" fill-rule="evenodd" viewBox="0 0 12 12">
  <clipPath id="a">
    <path d="M0 0h12v12H0z"/>
  </clipPath>
  <g clip-path="url(#a)">
    <path fill="#ebe7e7" d="M12 7.574c0 .414-.2.804-.545 1.06L7.663 11.46c-.965.72-2.328.72-3.292 0L.55 8.61C.2 8.353 0 7.962 0 7.55V6.507c0-.414.2-.805.545-1.06L4.337 2.62c.965-.718 2.327-.718 3.29 0l3.828 2.853c.344.256.545.647.545 1.06v1.04z"/>
    <path fill="#60c24d" d="M12 6.533c0 .414-.2.805-.545 1.06L7.663 10.42c-.965.72-2.328.72-3.292 0C3.21 9.55 1.66 8.398.55 7.57.2 7.31 0 6.92 0 6.507v-1.04c0-.415.2-.806.545-1.062L4.337 1.58c.965-.72 2.327-.72 3.29 0l3.828 2.852c.344.256.545.647.545 1.06v1.04z"/>
    <path fill="#ff691f" d="M0 4.95v-.524c0-.414.2-.805.545-1.06L4.337.538c.965-.72 2.327-.72 3.29 0l3.828 2.85c.344.257.545.648.545 1.062v1.046c0 .414-.2.805-.545 1.06l-3.792 2.83c-.965.72-2.328.72-3.292 0-1.16-.87-2.71-2.023-3.82-2.85C.2 6.276 0 5.886 0 5.47v-.52z"/>
    <path fill="#ff7c37" d="M7.628.54c-.964-.72-2.326-.72-3.29 0-1.158.86-2.69 2-3.794 2.824C.2 3.62 0 4.012 0 4.424c0 .416.2.807.545 1.063l3.826 2.85c.97.72 2.33.72 3.3 0 1.157-.86 2.688-2.002 3.79-2.825.345-.256.546-.647.546-1.06 0-.414-.2-.805-.544-1.06L7.628.538z"/>
    <path fill="#fff" d="M7.43 7.053c-.25.183-.572.24-.87.154-.3-.086-.54-.305-.656-.593 0-.005-.002-.01-.003-.013-.36.23-.89.13-1.01-.3l-.2-.14.22-.03c.12-.07.23-.132.31-.2.13-.104.17-.283.1-.433-.07-.15-.23-.23-.392-.2-.258.097-.524.326-.795.678l.108.145-.282-.016c-.21.276-.507.167-.854-.16-.764-.108-.65-.71.13-1.208-.25-.21-.283-.51.006-.943-.508-.71.52-1.52 2.365-2.38.11-.05.245-.023.325.07h.002c.073.083.19.12.297.09h.002c.266-.075.55-.02.773.14l3.07 2.233c.45.33.45.86 0 1.19L7.43 7.05zM4.218 4.225c-.054.013-.11-.014-.134-.064-.023-.05-.008-.11.038-.14L4.146 4c.03-.022.067-.026.1-.013s.057.043.064.078c-.002.028-.004.057-.017.09-.008.03-.03.052-.058.06-.005.007-.01.008-.017.01z"/>
    <path fill="url(#b)" d="M4.556 8.468c.948.59 2.203.548 3.107-.126l3.792-2.826C11.8 5.26 12 4.87 12 4.456v3.11c0 .413-.2.804-.545 1.06-1.104.823-2.635 1.965-3.792 2.826-.904.675-2.16.717-3.107.127V8.46z"/>
  </g>
  <defs>
    <linearGradient id="b" x2="1" gradientUnits="userSpaceOnUse" gradientTransform="matrix(3.082 0 0 2.9035 4.556 10.44)">
      <stop offset="0" stop-opacity="0"/>
      <stop offset="1" stop-opacity=".2"/>
    </linearGradient>
  </defs>
</svg>
