<?xml version="1.0" encoding="UTF-8" standalone="no"?><!DOCTYPE svg PUBLIC "-//W3C//DTD SVG 1.1//EN" "http://www.w3.org/Graphics/SVG/1.1/DTD/svg11.dtd"><svg width="100%" height="100%" viewBox="0 0 150 150" version="1.1" xmlns="http://www.w3.org/2000/svg" xmlns:xlink="http://www.w3.org/1999/xlink" xml:space="preserve" style="fill-rule:evenodd;clip-rule:evenodd;stroke-linejoin:round;stroke-miterlimit:1.41421;"><rect id="V5" x="0" y="0" width="150" height="150" style="fill:none;"/><path d="M9.579,95.177c0,-1.021 0,-5.004 0,-6.025c0,-4.787 2.19,-9.312 5.945,-12.282c12.037,-9.522 28.737,-22.732 41.346,-32.707c10.514,-8.317 25.366,-8.317 35.881,0c12.712,10.057 29.596,23.413 41.729,33.01c3.752,2.969 5.941,7.491 5.941,12.275c0,1.021 0,5.004 0,6.024c0,4.785 -2.189,9.307 -5.941,12.275c-12.035,9.521 -28.734,22.731 -41.345,32.707c-10.52,8.322 -25.381,8.322 -35.901,0c-12.708,-10.053 -29.581,-23.401 -41.71,-32.995c-3.755,-2.97 -5.945,-7.495 -5.945,-12.282Z" style="fill:#ebe7e7;"/><path d="M9.579,89.152c0,-1.02 0,-5.003 0,-6.024c0,-4.787 2.19,-9.312 5.945,-12.282c12.037,-9.522 28.737,-22.732 41.346,-32.707c10.514,-8.317 25.366,-8.317 35.881,0c12.712,10.057 29.596,23.412 41.729,33.01c3.752,2.969 5.941,7.49 5.941,12.275c0,1.02 0,5.004 0,6.024c0,4.785 -2.189,9.307 -5.941,12.275c-12.035,9.521 -28.734,22.731 -41.345,32.707c-10.52,8.322 -25.381,8.322 -35.901,0c-12.708,-10.053 -29.581,-23.401 -41.71,-32.995c-3.755,-2.971 -5.945,-7.495 -5.945,-12.283Z" style="fill:#60c24d;"/><path d="M9.579,83.128c0,-1.02 0,-5.004 0,-6.024c0,-4.787 2.19,-9.312 5.945,-12.282c12.037,-9.522 28.737,-22.733 41.346,-32.707c10.514,-8.317 25.366,-8.317 35.881,0c12.712,10.056 29.596,23.412 41.729,33.01c3.752,2.969 5.941,7.49 5.941,12.275c0,1.02 0,5.004 0,6.024c0,4.785 -2.189,9.307 -5.941,12.275c-12.035,9.521 -28.734,22.731 -41.345,32.707c-10.52,8.322 -25.381,8.322 -35.901,0c-12.708,-10.053 -29.581,-23.401 -41.71,-32.995c-3.755,-2.971 -5.945,-7.495 -5.945,-12.283Z" style="fill:#ff691f;"/><path d="M9.579,77.104c0,-1.02 0,-5.004 0,-6.024c0,-4.787 2.19,-9.312 5.945,-12.282c12.037,-9.523 28.737,-22.733 41.346,-32.707c10.514,-8.317 25.366,-8.317 35.881,0c12.712,10.056 29.596,23.412 41.729,33.01c3.752,2.968 5.941,7.49 5.941,12.275c0,1.02 0,5.004 0,6.024c0,4.785 -2.189,9.307 -5.941,12.275c-12.035,9.521 -28.734,22.731 -41.345,32.706c-10.52,8.322 -25.381,8.322 -35.901,0c-12.708,-10.052 -29.581,-23.4 -41.71,-32.995c-3.755,-2.97 -5.945,-7.494 -5.945,-12.282Z" style="fill:#ebe7e7;"/><path d="M9.579,71.152c0,-1.02 0,-5.003 0,-6.024c0,-4.787 2.19,-9.312 5.945,-12.282c12.037,-9.522 28.737,-22.732 41.346,-32.707c10.514,-8.317 25.366,-8.317 35.881,0c12.712,10.057 29.596,23.412 41.729,33.01c3.752,2.969 5.941,7.49 5.941,12.275c0,1.02 0,5.004 0,6.024c0,4.785 -2.189,9.307 -5.941,12.275c-12.035,9.521 -28.734,22.731 -41.345,32.707c-10.52,8.322 -25.381,8.322 -35.901,0c-12.708,-10.053 -29.581,-23.401 -41.71,-32.995c-3.755,-2.971 -5.945,-7.495 -5.945,-12.283Z" style="fill:#60c24d;"/><path d="M9.579,65.056c0,-1.02 0,-5.004 0,-6.024c0,-4.788 2.19,-9.312 5.945,-12.282c12.037,-9.523 28.737,-22.733 41.346,-32.707c10.514,-8.318 25.366,-8.318 35.881,0c12.712,10.056 29.596,23.412 41.729,33.01c3.752,2.968 5.941,7.49 5.941,12.275c0,1.02 0,5.004 0,6.024c0,4.785 -2.189,9.307 -5.941,12.275c-12.035,9.52 -28.734,22.73 -41.345,32.706c-10.52,8.322 -25.381,8.322 -35.901,0c-12.708,-10.053 -29.581,-23.4 -41.71,-32.995c-3.755,-2.97 -5.945,-7.494 -5.945,-12.282Z" style="fill:#ff691f;"/><path d="M92.751,14.043c-10.515,-8.318 -25.367,-8.318 -35.881,0c-12.609,9.974 -29.309,23.184 -41.346,32.707c-3.755,2.97 -5.945,7.494 -5.945,12.282c0,4.787 2.19,9.312 5.945,12.282c12.129,9.595 29.002,22.942 41.71,32.995c10.52,8.322 25.381,8.322 35.901,0c12.611,-9.976 29.31,-23.186 41.345,-32.706c3.752,-2.969 5.941,-7.49 5.941,-12.275c0,-4.785 -2.189,-9.307 -5.941,-12.275c-12.133,-9.598 -29.017,-22.954 -41.729,-33.01Z" style="fill:url(#_Radial1);"/><path d="M84.512,94.136c-0.824,0.638 -1.994,0.56 -2.726,-0.181c-3.846,-3.87 -7.012,-7.393 -7.868,-9.744c-3.972,2.633 -9.708,1.469 -11.036,-3.479l-2.158,-1.668l2.405,-0.334c4.306,-2.616 6.691,-5.096 6.579,-7.4c-0.047,-1.071 -0.752,-2.001 -1.77,-2.336c-4.322,-1.344 -8.788,1.536 -13.379,7.878l1.171,1.668l-3.082,-0.191c-2.282,3.21 -5.523,1.945 -9.31,-1.858c-8.332,-1.232 -7.083,-8.219 1.418,-13.963c-2.733,-2.422 -3.084,-5.895 0.062,-10.913c-5.612,-8.337 6.136,-17.887 26.994,-28.074c0.511,-0.249 1.127,-0.116 1.489,0.322c0.396,0.48 0.917,1.109 1.354,1.638c0.517,0.625 1.359,0.876 2.133,0.636c1.609,-0.498 3.11,-0.855 4.517,-1.088c0.71,-0.112 1.435,0.074 2.003,0.514c5.589,4.316 36.062,27.871 36.062,27.871c4.915,3.799 4.915,9.959 0,13.758c0,0 -28.134,21.747 -34.858,26.944Zm-33.132,-37.098c-0.058,-0.008 -0.106,-0.051 -0.122,-0.109c-0.015,-0.058 0.006,-0.119 0.053,-0.155c0.866,-0.67 3.528,-2.727 4.371,-3.379c0.06,-0.046 0.138,-0.061 0.211,-0.04c0.072,0.021 0.131,0.075 0.157,0.145c0.332,0.887 0.742,1.542 0.246,2.64c-0.086,0.225 -0.273,0.397 -0.504,0.464c-1.767,0.548 -3.175,0.599 -4.412,0.434Z" style="fill:url(#_Radial2);"/><path d="M59.251,105.817c10.34,6.83 24.02,6.343 33.884,-1.46c12.611,-9.976 29.31,-23.185 41.345,-32.706c3.752,-2.968 5.941,-7.49 5.941,-12.275l0,36c0,4.785 -2.189,9.307 -5.941,12.275c-12.035,9.521 -28.734,22.73 -41.345,32.706c-9.864,7.803 -23.544,8.29 -33.884,1.46l0,-36Z" style="fill:url(#_Linear3);"/><defs><radialGradient id="_Radial1" cx="0" cy="0" r="1" gradientUnits="userSpaceOnUse" gradientTransform="matrix(70.4995,63.185,-63.185,70.4995,61.9232,10.8322)"><stop offset="0" style="stop-color:#fae1d7;stop-opacity:1"/><stop offset="0.52" style="stop-color:#fe9762;stop-opacity:1"/><stop offset="1" style="stop-color:#ff7c37;stop-opacity:1"/></radialGradient><radialGradient id="_Radial2" cx="0" cy="0" r="1" gradientUnits="userSpaceOnUse" gradientTransform="matrix(16.3304,46.8088,-46.8088,16.3304,66.7507,48.4337)"><stop offset="0" style="stop-color:#fffbee;stop-opacity:1"/><stop offset="0.59" style="stop-color:#fef4e7;stop-opacity:1"/><stop offset="0.81" style="stop-color:#fde5d7;stop-opacity:1"/><stop offset="1" style="stop-color:#fbd5c7;stop-opacity:1"/></radialGradient><linearGradient id="_Linear3" x1="0" y1="0" x2="1" y2="0" gradientUnits="userSpaceOnUse" gradientTransform="matrix(33.6057,0,0,33.6057,59.2507,128.623)"><stop offset="0" style="stop-color:#000;stop-opacity:0"/><stop offset="1" style="stop-color:#000;stop-opacity:0.2"/></linearGradient></defs></svg>