<svg xmlns="http://www.w3.org/2000/svg" fill-rule="evenodd" viewBox="0 0 150 150">
  <path fill="#ebe7e7" d="M9.58 95.177v-6.025c0-4.787 2.19-9.312 5.944-12.282L56.87 44.163c10.514-8.317 25.366-8.317 35.88 0l41.73 33.01c3.752 2.97 5.94 7.49 5.94 12.275v6.024c0 4.785-2.188 9.307-5.94 12.275l-41.345 32.707c-10.52 8.322-25.38 8.322-35.9 0-12.71-10.053-29.582-23.4-41.71-32.995-3.756-2.97-5.946-7.5-5.946-12.29z"/>
  <path fill="#60c24d" d="M9.58 89.152v-6.024c0-4.787 2.19-9.312 5.944-12.282L56.87 38.14c10.514-8.318 25.366-8.318 35.88 0 12.713 10.056 29.597 23.41 41.73 33.01 3.752 2.968 5.94 7.49 5.94 12.274v6.024c0 4.785-2.188 9.307-5.94 12.275L93.135 134.43c-10.52 8.322-25.38 8.322-35.9 0-12.71-10.053-29.582-23.4-41.71-32.995-3.756-2.97-5.946-7.495-5.946-12.283z"/>
  <path fill="#ff691f" d="M9.58 83.128v-6.024c0-4.787 2.19-9.312 5.944-12.282L56.87 32.115c10.514-8.317 25.366-8.317 35.88 0l41.73 33.01c3.752 2.97 5.94 7.49 5.94 12.275v6.024c0 4.785-2.188 9.307-5.94 12.275l-41.345 32.7c-10.52 8.32-25.38 8.32-35.9 0-12.71-10.06-29.582-23.4-41.71-33-3.755-2.97-5.945-7.49-5.945-12.28z"/>
  <path fill="#ebe7e7" d="M9.58 77.104V71.08c0-4.787 2.19-9.312 5.944-12.282L56.87 26.09c10.514-8.316 25.366-8.316 35.88 0l41.73 33.01c3.752 2.97 5.94 7.49 5.94 12.276V77.4c0 4.785-2.188 9.307-5.94 12.275L93.135 122.38c-10.52 8.323-25.38 8.323-35.9 0-12.71-10.05-29.582-23.4-41.71-32.994-3.756-2.97-5.946-7.494-5.946-12.282z"/>
  <path fill="#60c24d" d="M9.58 71.152v-6.024c0-4.787 2.19-9.312 5.944-12.282L56.87 20.14c10.514-8.318 25.366-8.318 35.88 0 12.713 10.056 29.597 23.41 41.73 33.01 3.752 2.968 5.94 7.49 5.94 12.274v6.024c0 4.785-2.188 9.307-5.94 12.275L93.135 116.43c-10.52 8.322-25.38 8.322-35.9 0-12.71-10.053-29.582-23.4-41.71-32.995-3.756-2.97-5.946-7.495-5.946-12.283z"/>
  <path fill="#ff691f" d="M9.58 65.056v-6.024c0-4.788 2.19-9.312 5.944-12.282L56.87 14.043c10.514-8.318 25.366-8.318 35.88 0l41.73 33.01c3.752 2.968 5.94 7.49 5.94 12.275v6.024c0 4.785-2.188 9.307-5.94 12.275l-41.345 32.706c-10.52 8.322-25.38 8.322-35.9 0-12.71-10.053-29.582-23.4-41.71-32.995-3.756-2.97-5.946-7.494-5.946-12.282z"/>
  <path fill="#ff7c37" d="M92.75 14.043c-10.514-8.318-25.366-8.318-35.88 0-12.61 9.974-29.31 23.184-41.346 32.707-3.755 2.97-5.945 7.494-5.945 12.282 0 4.787 2.19 9.312 5.94 12.282l41.71 32.995c10.52 8.32 25.38 8.32 35.9 0l41.35-32.71c3.75-2.97 5.94-7.49 5.94-12.28s-2.19-9.31-5.94-12.28l-41.73-33z"/>
  <path fill="#fff" d="M84.512 94.136c-.824.638-1.994.56-2.726-.18-3.846-3.87-7.012-7.394-7.868-9.745-3.972 2.64-9.708 1.47-11.036-3.47l-2.158-1.67 2.405-.33c4.3-2.61 6.69-5.09 6.57-7.4-.05-1.07-.75-2-1.77-2.33-4.32-1.34-8.79 1.54-13.38 7.88l1.17 1.67-3.09-.19c-2.28 3.21-5.526 1.946-9.31-1.86-8.33-1.23-7.086-8.22 1.42-13.96-2.737-2.422-3.088-5.895.06-10.913-5.61-8.34 6.134-17.89 26.994-28.073.51-.25 1.125-.115 1.49.323l1.35 1.635c.52.626 1.36.877 2.134.637 1.61-.496 3.11-.853 4.517-1.086.71-.113 1.434.073 2.002.513 5.59 4.318 36.06 27.87 36.06 27.87 4.914 3.8 4.914 9.96 0 13.76L84.51 94.14zM51.38 57.038c-.058-.008-.106-.05-.122-.11-.015-.057.006-.118.053-.154.87-.67 3.53-2.727 4.38-3.38.06-.045.14-.06.21-.04.08.022.13.076.16.146.34.887.75 1.542.25 2.64-.08.225-.27.397-.5.464-1.764.548-3.172.6-4.41.434z"/>
</svg>