<?xml version="1.0" encoding="UTF-8" standalone="no"?>
<!DOCTYPE svg PUBLIC "-//W3C//DTD SVG 1.1//EN" "http://www.w3.org/Graphics/SVG/1.1/DTD/svg11.dtd">
<svg width="100%" height="100%" viewBox="0 0 200 200" version="1.1" xmlns="http://www.w3.org/2000/svg" xmlns:xlink="http://www.w3.org/1999/xlink" xml:space="preserve" style="fill-rule:evenodd;clip-rule:evenodd;stroke-linejoin:round;stroke-miterlimit:1.41421;">
    <g transform="matrix(1,0,0,1,-220,-2.39029)">
        <g id="V2" transform="matrix(1.05695,0,0,1.02149,-4.89268,2.39029)">
            <rect x="212.776" y="0" width="189.224" height="195.792" style="fill:none;"/>
            <g transform="matrix(0.759937,0,0,0.786315,-2.66985,42.9587)">
                <path d="M299.406,103.36C299.406,101.667 299.406,95.054 299.406,93.36C299.406,85.413 303.041,77.902 309.274,72.972C329.256,57.164 356.977,35.235 377.908,18.678C395.362,4.871 420.017,4.871 437.471,18.678C458.574,35.372 486.601,57.542 506.741,73.475C512.97,78.402 516.603,85.909 516.603,93.851C516.603,95.545 516.603,102.158 516.603,103.851C516.603,111.794 512.97,119.3 506.741,124.228C486.763,140.032 459.042,161.96 438.108,178.52C420.645,192.335 395.976,192.335 378.513,178.52C357.417,161.832 329.408,139.676 309.274,123.749C303.041,118.818 299.406,111.307 299.406,103.36Z" style="fill:url(#_Linear1);"/>
            </g>
            <g transform="matrix(0.759937,0,0,0.786315,-2.66985,35.0956)">
                <path d="M299.406,103.36C299.406,101.667 299.406,95.054 299.406,93.36C299.406,85.413 303.041,77.902 309.274,72.972C329.256,57.164 356.977,35.235 377.908,18.678C395.362,4.871 420.017,4.871 437.471,18.678C458.574,35.372 486.601,57.542 506.741,73.475C512.97,78.402 516.603,85.909 516.603,93.851C516.603,95.545 516.603,102.158 516.603,103.851C516.603,111.794 512.97,119.3 506.741,124.228C486.763,140.032 459.042,161.96 438.108,178.52C420.645,192.335 395.976,192.335 378.513,178.52C357.417,161.832 329.408,139.676 309.274,123.749C303.041,118.818 299.406,111.307 299.406,103.36Z" style="fill:url(#_Linear2);"/>
            </g>
            <g transform="matrix(0.759937,0,0,0.786315,-2.66985,27.2324)">
                <path d="M299.406,103.36C299.406,101.667 299.406,95.054 299.406,93.36C299.406,85.413 303.041,77.902 309.274,72.972C329.256,57.164 356.977,35.235 377.908,18.678C395.362,4.871 420.017,4.871 437.471,18.678C458.574,35.372 486.601,57.542 506.741,73.475C512.97,78.402 516.603,85.909 516.603,93.851C516.603,95.545 516.603,102.158 516.603,103.851C516.603,111.794 512.97,119.3 506.741,124.228C486.763,140.032 459.042,161.96 438.108,178.52C420.645,192.335 395.976,192.335 378.513,178.52C357.417,161.832 329.408,139.676 309.274,123.749C303.041,118.818 299.406,111.307 299.406,103.36Z" style="fill:url(#_Linear3);"/>
            </g>
            <g transform="matrix(0.759937,0,0,0.786315,-2.66985,19.3693)">
                <path d="M299.406,103.36C299.406,101.667 299.406,95.054 299.406,93.36C299.406,85.413 303.041,77.902 309.274,72.972C329.256,57.164 356.977,35.235 377.908,18.678C395.362,4.871 420.017,4.871 437.471,18.678C458.574,35.372 486.601,57.542 506.741,73.475C512.97,78.402 516.603,85.909 516.603,93.851C516.603,95.545 516.603,102.158 516.603,103.851C516.603,111.794 512.97,119.3 506.741,124.228C486.763,140.032 459.042,161.96 438.108,178.52C420.645,192.335 395.976,192.335 378.513,178.52C357.417,161.832 329.408,139.676 309.274,123.749C303.041,118.818 299.406,111.307 299.406,103.36Z" style="fill:url(#_Linear4);"/>
            </g>
            <g transform="matrix(0.759937,0,0,0.786315,-2.66985,11.5061)">
                <path d="M299.406,103.36C299.406,101.667 299.406,95.054 299.406,93.36C299.406,85.413 303.041,77.902 309.274,72.972C329.256,57.164 356.977,35.235 377.908,18.678C395.362,4.871 420.017,4.871 437.471,18.678C458.574,35.372 486.601,57.542 506.741,73.475C512.97,78.402 516.603,85.909 516.603,93.851C516.603,95.545 516.603,102.158 516.603,103.851C516.603,111.794 512.97,119.3 506.741,124.228C486.763,140.032 459.042,161.96 438.108,178.52C420.645,192.335 395.976,192.335 378.513,178.52C357.417,161.832 329.408,139.676 309.274,123.749C303.041,118.818 299.406,111.307 299.406,103.36Z" style="fill:url(#_Linear5);"/>
            </g>
            <g transform="matrix(0.759937,0,0,0.786315,-2.66985,3.64298)">
                <path d="M299.406,103.36C299.406,101.667 299.406,95.054 299.406,93.36C299.406,85.413 303.041,77.902 309.274,72.972C329.256,57.164 356.977,35.235 377.908,18.678C395.362,4.871 420.017,4.871 437.471,18.678C458.574,35.372 486.601,57.542 506.741,73.475C512.97,78.402 516.603,85.909 516.603,93.851C516.603,95.545 516.603,102.158 516.603,103.851C516.603,111.794 512.97,119.3 506.741,124.228C486.763,140.032 459.042,161.96 438.108,178.52C420.645,192.335 395.976,192.335 378.513,178.52C357.417,161.832 329.408,139.676 309.274,123.749C303.041,118.818 299.406,111.307 299.406,103.36Z" style="fill:url(#_Linear6);"/>
            </g>
            <g transform="matrix(0.737314,-0.6035,0.741,0.606518,192.127,93.9514)">
                <path d="M156,30.542C156,12.643 143.294,0 125.305,0C103.732,0 75.16,0 54.565,0C48.141,0 41.374,3.005 36.197,8.156C31.02,13.308 28,20.04 28,26.433C28,47.081 28,75.806 28,97.441C28,115.351 40.713,128 58.712,128C80.288,128 108.859,128 129.451,128C135.871,128 142.634,124.997 147.808,119.849C152.982,114.7 156,107.971 156,101.583C156,80.928 156,52.185 156,30.542Z" style="fill:url(#_Radial7);"/>
            </g>
            <g transform="matrix(0.0168403,-0.0134688,0.0168403,0.0134688,230.884,88.5151)">
                <path d="M881.601,4266.67C927.85,3889.6 982.076,3550.97 1072.94,3388.9C796.604,3367.74 638.142,3096.52 828.172,2807L828.172,2645.36L934.393,2719.25C1301.04,2763.19 1540.44,2701.23 1604.04,2492.95C1541.59,2206.64 1224.39,2161.14 703.479,2308.22L666.532,2432.92L560.312,2308.22C319.318,2378.3 259.186,2195.62 301.688,1869.49C49.257,1497.73 434.61,1205.98 1031.38,1246.02C1046.32,1026.31 1201.47,844.844 1562.48,719.534C1758.93,96.838 2684.17,82.096 3987.08,382.399L3927.04,654.878C4064.89,708.039 4176.36,767.923 4266.67,833.263L4266.67,3600C4266.67,3968.19 3968.19,4266.67 3600,4266.67L881.601,4266.67ZM1535.1,1212.71L1902.58,1212.71C1860.11,1283.17 1850.77,1341.73 1744.67,1380.62C1635.72,1333.98 1575.53,1275.7 1535.1,1212.71Z" style="fill-opacity:0.101961;"/>
            </g>
            <g transform="matrix(0.737314,0.6035,0.741,-0.606518,192.127,68.3991)">
                <path d="M156,30.542C156,12.643 143.294,0 125.305,0C103.732,0 75.16,0 54.565,0C48.141,0 41.374,3.005 36.197,8.156C31.02,13.308 28,20.04 28,26.433C28,47.081 28,75.806 28,97.441C28,115.351 40.713,128 58.712,128C80.288,128 108.859,128 129.451,128C135.871,128 142.634,124.997 147.808,119.849C152.982,114.7 156,107.971 156,101.583C156,80.928 156,52.185 156,30.542Z" style="fill:url(#_Linear8);"/>
            </g>
            <g transform="matrix(0.0168403,-0.0134688,0.0168403,0.0134688,230.884,77.7465)">
                <path d="M881.601,4266.67C927.85,3889.6 982.076,3550.97 1072.94,3388.9C796.604,3367.74 638.142,3096.52 828.172,2807L828.172,2645.36L934.393,2719.25C1301.04,2763.19 1540.44,2701.23 1604.04,2492.95C1541.59,2206.64 1224.39,2161.14 703.479,2308.22L666.532,2432.92L560.312,2308.22C319.318,2378.3 259.186,2195.62 301.688,1869.49C49.257,1497.73 434.61,1205.98 1031.38,1246.02C1046.32,1026.31 1201.47,844.844 1562.48,719.534C1758.93,96.838 2684.17,82.096 3987.08,382.399L3927.04,654.878C4064.89,708.039 4176.36,767.923 4266.67,833.263L4266.67,3600C4266.67,3968.19 3968.19,4266.67 3600,4266.67L881.601,4266.67ZM1535.1,1212.71L1902.58,1212.71C1860.11,1283.17 1850.77,1341.73 1744.67,1380.62C1635.72,1333.98 1575.53,1275.7 1535.1,1212.71Z" style="fill:rgb(248,173,146);"/>
            </g>
            <g transform="matrix(0.0168403,-0.0134688,0.0168403,0.0134688,230.884,78.7255)">
                <path d="M881.601,4266.67C927.85,3889.6 982.076,3550.97 1072.94,3388.9C796.604,3367.74 638.142,3096.52 828.172,2807L828.172,2645.36L934.393,2719.25C1301.04,2763.19 1540.44,2701.23 1604.04,2492.95C1541.59,2206.64 1224.39,2161.14 703.479,2308.22L666.532,2432.92L560.312,2308.22C319.318,2378.3 259.186,2195.62 301.688,1869.49C49.257,1497.73 434.61,1205.98 1031.38,1246.02C1046.32,1026.31 1201.47,844.844 1562.48,719.534C1758.93,96.838 2684.17,82.096 3987.08,382.399L3927.04,654.878C4064.89,708.039 4176.36,767.923 4266.67,833.263L4266.67,3600C4266.67,3968.19 3968.19,4266.67 3600,4266.67L881.601,4266.67ZM1535.1,1212.71L1902.58,1212.71C1860.11,1283.17 1850.77,1341.73 1744.67,1380.62C1635.72,1333.98 1575.53,1275.7 1535.1,1212.71Z" style="fill:url(#_Linear9);"/>
            </g>
        </g>
    </g>
    <defs>
        <linearGradient id="_Linear1" x1="0" y1="0" x2="1" y2="0" gradientUnits="userSpaceOnUse" gradientTransform="matrix(-58.6715,7.18519e-15,-7.18519e-15,-58.6715,437.646,178.881)"><stop offset="0" style="stop-color:rgb(254,223,126);stop-opacity:1"/><stop offset="1" style="stop-color:rgb(249,250,180);stop-opacity:1"/></linearGradient>
        <linearGradient id="_Linear2" x1="0" y1="0" x2="1" y2="0" gradientUnits="userSpaceOnUse" gradientTransform="matrix(-58.6715,7.18519e-15,-7.18519e-15,-58.6715,437.646,178.881)"><stop offset="0" style="stop-color:rgb(142,82,20);stop-opacity:1"/><stop offset="1" style="stop-color:rgb(229,111,14);stop-opacity:1"/></linearGradient>
        <linearGradient id="_Linear3" x1="0" y1="0" x2="1" y2="0" gradientUnits="userSpaceOnUse" gradientTransform="matrix(-58.6715,7.18519e-15,-7.18519e-15,-58.6715,437.646,178.881)"><stop offset="0" style="stop-color:rgb(254,223,126);stop-opacity:1"/><stop offset="1" style="stop-color:rgb(249,250,180);stop-opacity:1"/></linearGradient>
        <linearGradient id="_Linear4" x1="0" y1="0" x2="1" y2="0" gradientUnits="userSpaceOnUse" gradientTransform="matrix(-58.6715,7.18519e-15,-7.18519e-15,-58.6715,437.646,178.881)"><stop offset="0" style="stop-color:rgb(142,82,20);stop-opacity:1"/><stop offset="1" style="stop-color:rgb(229,111,14);stop-opacity:1"/></linearGradient>
        <linearGradient id="_Linear5" x1="0" y1="0" x2="1" y2="0" gradientUnits="userSpaceOnUse" gradientTransform="matrix(-58.6715,7.18519e-15,-7.18519e-15,-58.6715,437.646,178.881)"><stop offset="0" style="stop-color:rgb(254,223,126);stop-opacity:1"/><stop offset="1" style="stop-color:rgb(249,250,180);stop-opacity:1"/></linearGradient>
        <linearGradient id="_Linear6" x1="0" y1="0" x2="1" y2="0" gradientUnits="userSpaceOnUse" gradientTransform="matrix(-58.6715,7.18519e-15,-7.18519e-15,-58.6715,437.646,178.881)"><stop offset="0" style="stop-color:rgb(142,82,20);stop-opacity:1"/><stop offset="1" style="stop-color:rgb(229,111,14);stop-opacity:1"/></linearGradient>
        <radialGradient id="_Radial7" cx="0" cy="0" r="1" gradientUnits="userSpaceOnUse" gradientTransform="matrix(-8.02001,128,-130.293,22.077,133.1,0.846816)"><stop offset="0" style="stop-color:rgb(250,233,235);stop-opacity:1"/><stop offset="0.52" style="stop-color:rgb(244,139,102);stop-opacity:1"/><stop offset="1" style="stop-color:rgb(242,105,53);stop-opacity:1"/></radialGradient>
        <linearGradient id="_Linear8" x1="0" y1="0" x2="1" y2="0" gradientUnits="userSpaceOnUse" gradientTransform="matrix(55.3991,-55.4359,-44.1463,-43.5317,36.6062,119.437)"><stop offset="0" style="stop-color:rgb(253,237,231);stop-opacity:0.498039"/><stop offset="1" style="stop-color:rgb(253,237,231);stop-opacity:0"/></linearGradient>
        <linearGradient id="_Linear9" x1="0" y1="0" x2="1" y2="0" gradientUnits="userSpaceOnUse" gradientTransform="matrix(137.767,2886.04,-3018.14,893.81,1744.67,1380.62)"><stop offset="0" style="stop-color:rgb(255,251,238);stop-opacity:1"/><stop offset="1" style="stop-color:rgb(251,213,199);stop-opacity:1"/></linearGradient>
    </defs>
</svg>
