<?xml version="1.0" encoding="UTF-8" standalone="no"?>
<!DOCTYPE svg PUBLIC "-//W3C//DTD SVG 1.1//EN" "http://www.w3.org/Graphics/SVG/1.1/DTD/svg11.dtd">
<svg width="100%" height="100%" viewBox="0 0 200 200" version="1.1" xmlns="http://www.w3.org/2000/svg" xmlns:xlink="http://www.w3.org/1999/xlink" xml:space="preserve" style="fill-rule:evenodd;clip-rule:evenodd;stroke-linecap:round;stroke-linejoin:round;stroke-miterlimit:1.5;">
    <g transform="matrix(1,0,0,1,-440,-2.39029)">
        <g id="V3" transform="matrix(1.05695,0,0,1.02149,215.107,2.39029)">
            <rect x="212.776" y="0" width="189.224" height="195.792" style="fill:none;"/>
            <g transform="matrix(0.759937,0,0,0.786315,-2.66985,42.9587)">
                <path d="M299.406,103.36C299.406,101.667 299.406,95.054 299.406,93.36C299.406,85.413 303.041,77.902 309.274,72.972C329.256,57.164 356.977,35.235 377.908,18.678C395.362,4.871 420.017,4.871 437.471,18.678C458.574,35.372 486.601,57.542 506.741,73.475C512.97,78.402 516.603,85.909 516.603,93.851C516.603,95.545 516.603,102.158 516.603,103.851C516.603,111.794 512.97,119.3 506.741,124.228C486.763,140.032 459.042,161.96 438.108,178.52C420.645,192.335 395.976,192.335 378.513,178.52C357.417,161.832 329.408,139.676 309.274,123.749C303.041,118.818 299.406,111.307 299.406,103.36Z" style="fill:url(#_Linear1);"/>
            </g>
            <g transform="matrix(0.759937,0,0,0.786315,-2.66985,35.0956)">
                <path d="M299.406,103.36C299.406,101.667 299.406,95.054 299.406,93.36C299.406,85.413 303.041,77.902 309.274,72.972C329.256,57.164 356.977,35.235 377.908,18.678C395.362,4.871 420.017,4.871 437.471,18.678C458.574,35.372 486.601,57.542 506.741,73.475C512.97,78.402 516.603,85.909 516.603,93.851C516.603,95.545 516.603,102.158 516.603,103.851C516.603,111.794 512.97,119.3 506.741,124.228C486.763,140.032 459.042,161.96 438.108,178.52C420.645,192.335 395.976,192.335 378.513,178.52C357.417,161.832 329.408,139.676 309.274,123.749C303.041,118.818 299.406,111.307 299.406,103.36Z" style="fill:url(#_Linear2);"/>
            </g>
            <g transform="matrix(0.759937,0,0,0.786315,-2.66985,27.2324)">
                <path d="M299.406,103.36C299.406,101.667 299.406,95.054 299.406,93.36C299.406,85.413 303.041,77.902 309.274,72.972C329.256,57.164 356.977,35.235 377.908,18.678C395.362,4.871 420.017,4.871 437.471,18.678C458.574,35.372 486.601,57.542 506.741,73.475C512.97,78.402 516.603,85.909 516.603,93.851C516.603,95.545 516.603,102.158 516.603,103.851C516.603,111.794 512.97,119.3 506.741,124.228C486.763,140.032 459.042,161.96 438.108,178.52C420.645,192.335 395.976,192.335 378.513,178.52C357.417,161.832 329.408,139.676 309.274,123.749C303.041,118.818 299.406,111.307 299.406,103.36Z" style="fill:url(#_Linear3);"/>
            </g>
            <g transform="matrix(0.759937,0,0,0.786315,-2.66985,19.3693)">
                <path d="M299.406,103.36C299.406,101.667 299.406,95.054 299.406,93.36C299.406,85.413 303.041,77.902 309.274,72.972C329.256,57.164 356.977,35.235 377.908,18.678C395.362,4.871 420.017,4.871 437.471,18.678C458.574,35.372 486.601,57.542 506.741,73.475C512.97,78.402 516.603,85.909 516.603,93.851C516.603,95.545 516.603,102.158 516.603,103.851C516.603,111.794 512.97,119.3 506.741,124.228C486.763,140.032 459.042,161.96 438.108,178.52C420.645,192.335 395.976,192.335 378.513,178.52C357.417,161.832 329.408,139.676 309.274,123.749C303.041,118.818 299.406,111.307 299.406,103.36Z" style="fill:url(#_Linear4);"/>
            </g>
            <g transform="matrix(0.759937,0,0,0.786315,-2.66985,11.5061)">
                <path d="M299.406,103.36C299.406,101.667 299.406,95.054 299.406,93.36C299.406,85.413 303.041,77.902 309.274,72.972C329.256,57.164 356.977,35.235 377.908,18.678C395.362,4.871 420.017,4.871 437.471,18.678C458.574,35.372 486.601,57.542 506.741,73.475C512.97,78.402 516.603,85.909 516.603,93.851C516.603,95.545 516.603,102.158 516.603,103.851C516.603,111.794 512.97,119.3 506.741,124.228C486.763,140.032 459.042,161.96 438.108,178.52C420.645,192.335 395.976,192.335 378.513,178.52C357.417,161.832 329.408,139.676 309.274,123.749C303.041,118.818 299.406,111.307 299.406,103.36Z" style="fill:url(#_Linear5);"/>
            </g>
            <g transform="matrix(0.759937,0,0,0.786315,-2.66985,3.64298)">
                <path d="M299.406,103.36C299.406,101.667 299.406,95.054 299.406,93.36C299.406,85.413 303.041,77.902 309.274,72.972C329.256,57.164 356.977,35.235 377.908,18.678C395.362,4.871 420.017,4.871 437.471,18.678C458.574,35.372 486.601,57.542 506.741,73.475C512.97,78.402 516.603,85.909 516.603,93.851C516.603,95.545 516.603,102.158 516.603,103.851C516.603,111.794 512.97,119.3 506.741,124.228C486.763,140.032 459.042,161.96 438.108,178.52C420.645,192.335 395.976,192.335 378.513,178.52C357.417,161.832 329.408,139.676 309.274,123.749C303.041,118.818 299.406,111.307 299.406,103.36Z" style="fill:url(#_Linear6);"/>
            </g>
            <g transform="matrix(0.737314,-0.6035,0.741,0.606518,192.127,93.9514)">
                <path d="M156,30.542C156,12.643 143.294,0 125.305,0C103.732,0 75.16,0 54.565,0C48.141,0 41.374,3.005 36.197,8.156C31.02,13.308 28,20.04 28,26.433C28,47.081 28,75.806 28,97.441C28,115.351 40.713,128 58.712,128C80.288,128 108.859,128 129.451,128C135.871,128 142.634,124.997 147.808,119.849C152.982,114.7 156,107.971 156,101.583C156,80.928 156,52.185 156,30.542Z" style="fill:url(#_Radial7);"/>
            </g>
            <g transform="matrix(0.737314,0.6035,0.741,-0.606518,192.127,68.3991)">
                <path d="M156,30.542C156,12.643 143.294,0 125.305,0C103.732,0 75.16,0 54.565,0C48.141,0 41.374,3.005 36.197,8.156C31.02,13.308 28,20.04 28,26.433C28,47.081 28,75.806 28,97.441C28,115.351 40.713,128 58.712,128C80.288,128 108.859,128 129.451,128C135.871,128 142.634,124.997 147.808,119.849C152.982,114.7 156,107.971 156,101.583C156,80.928 156,52.185 156,30.542Z" style="fill:url(#_Linear8);stroke:url(#_Linear9);stroke-width:0.91px;"/>
            </g>
            <g transform="matrix(0.380916,0,0,0.382417,52.9146,30.6476)">
                <path d="M665.671,42.544C667.154,43.403 668.964,43.403 670.446,42.542C756.243,-6.877 838.038,118.658 668.251,215.679C668.192,215.713 668.125,215.731 668.058,215.731C668.058,215.731 668.058,215.731 668.058,215.731C667.991,215.73 667.925,215.713 667.867,215.679C498.08,118.658 579.874,-6.876 665.671,42.544Z" style="fill:rgb(221,98,128);"/>
            </g>
            <g transform="matrix(0.380916,0,0,0.382417,52.9146,33.5845)">
                <path d="M665.589,42.496C667.123,43.384 668.995,43.383 670.528,42.495C756.295,-6.796 837.983,118.689 668.251,215.679C668.192,215.713 668.125,215.731 668.058,215.731C668.058,215.731 668.058,215.731 668.058,215.731C667.991,215.73 667.925,215.713 667.867,215.679C498.135,118.689 579.822,-6.796 665.589,42.496Z" style="fill:url(#_Radial10);"/>
            </g>
        </g>
    </g>
    <defs>
        <linearGradient id="_Linear1" x1="0" y1="0" x2="1" y2="0" gradientUnits="userSpaceOnUse" gradientTransform="matrix(58.6715,0,0,58.6715,378.975,178.881)"><stop offset="0" style="stop-color:rgb(235,231,231);stop-opacity:1"/><stop offset="1" style="stop-color:rgb(218,210,211);stop-opacity:1"/></linearGradient>
        <linearGradient id="_Linear2" x1="0" y1="0" x2="1" y2="0" gradientUnits="userSpaceOnUse" gradientTransform="matrix(58.6715,0,0,58.6715,378.975,178.881)"><stop offset="0" style="stop-color:rgb(103,190,112);stop-opacity:1"/><stop offset="1" style="stop-color:rgb(65,181,77);stop-opacity:1"/></linearGradient>
        <linearGradient id="_Linear3" x1="0" y1="0" x2="1" y2="0" gradientUnits="userSpaceOnUse" gradientTransform="matrix(58.6715,0,0,58.6715,378.975,178.881)"><stop offset="0" style="stop-color:rgb(217,77,112);stop-opacity:1"/><stop offset="1" style="stop-color:rgb(194,48,85);stop-opacity:1"/></linearGradient>
        <linearGradient id="_Linear4" x1="0" y1="0" x2="1" y2="0" gradientUnits="userSpaceOnUse" gradientTransform="matrix(58.6715,0,0,58.6715,378.975,178.881)"><stop offset="0" style="stop-color:rgb(235,231,231);stop-opacity:1"/><stop offset="1" style="stop-color:rgb(218,210,211);stop-opacity:1"/></linearGradient>
        <linearGradient id="_Linear5" x1="0" y1="0" x2="1" y2="0" gradientUnits="userSpaceOnUse" gradientTransform="matrix(58.6715,0,0,58.6715,378.975,178.881)"><stop offset="0" style="stop-color:rgb(103,190,112);stop-opacity:1"/><stop offset="1" style="stop-color:rgb(65,181,77);stop-opacity:1"/></linearGradient>
        <linearGradient id="_Linear6" x1="0" y1="0" x2="1" y2="0" gradientUnits="userSpaceOnUse" gradientTransform="matrix(58.6715,0,0,58.6715,378.975,178.881)"><stop offset="0" style="stop-color:rgb(217,77,112);stop-opacity:1"/><stop offset="1" style="stop-color:rgb(194,48,85);stop-opacity:1"/></linearGradient>
        <radialGradient id="_Radial7" cx="0" cy="0" r="1" gradientUnits="userSpaceOnUse" gradientTransform="matrix(-8.02001,128,-130.293,22.077,133.1,0.846816)"><stop offset="0" style="stop-color:rgb(250,233,235);stop-opacity:1"/><stop offset="0.52" style="stop-color:rgb(226,128,141);stop-opacity:1"/><stop offset="1" style="stop-color:rgb(217,89,106);stop-opacity:1"/></radialGradient>
        <linearGradient id="_Linear8" x1="0" y1="0" x2="1" y2="0" gradientUnits="userSpaceOnUse" gradientTransform="matrix(48.8839,-48.9543,-38.9937,-38.4032,36.6062,119.437)"><stop offset="0" style="stop-color:rgb(255,250,250);stop-opacity:0.347651"/><stop offset="1" style="stop-color:rgb(255,250,250);stop-opacity:0"/></linearGradient>
        <linearGradient id="_Linear9" x1="0" y1="0" x2="1" y2="0" gradientUnits="userSpaceOnUse" gradientTransform="matrix(48.8839,-48.9543,-38.9937,-38.4032,36.6062,119.437)"><stop offset="0" style="stop-color:white;stop-opacity:0.498039"/><stop offset="1" style="stop-color:white;stop-opacity:0"/></linearGradient>
        <radialGradient id="_Radial10" cx="0" cy="0" r="1" gradientUnits="userSpaceOnUse" gradientTransform="matrix(0.00226707,-102.087,102.087,0.00226707,668.057,215.731)"><stop offset="0" style="stop-color:rgb(252,203,215);stop-opacity:1"/><stop offset="1" style="stop-color:white;stop-opacity:1"/></radialGradient>
    </defs>
</svg>
