<svg xmlns="http://www.w3.org/2000/svg" fill-rule="evenodd" stroke-miterlimit="1.5" viewBox="0 0 200 200" stroke-linecap="round" stroke-linejoin="round">
  <path fill="#fff" stroke="#000" stroke-width=".667" d="M12.767 126.9v-8.03c0-6.384 2.92-12.417 7.926-16.377l55.127-43.61c14.02-11.09 33.822-11.09 47.84 0l55.638 44.014c5.004 3.957 7.922 9.987 7.922 16.366v8.032c0 6.38-2.918 12.41-7.92 16.368l-55.126 43.606c-14.026 11.093-33.84 11.093-47.867 0l-55.613-43.994c-5.006-3.96-7.925-9.994-7.925-16.377z"/>
  <path fill="#AAA" stroke="#000" stroke-width=".667" d="M12.767 118.87v-8.033c0-6.383 2.92-12.416 7.926-16.376L75.82 50.855c14.02-11.09 33.822-11.09 47.84 0l55.64 44.012c5.004 3.957 7.922 9.987 7.922 16.366v8.034c0 6.38-2.918 12.41-7.92 16.368l-55.126 43.607c-14.026 11.096-33.84 11.096-47.867 0l-55.615-43.99c-5.006-3.962-7.925-9.995-7.925-16.38z"/>
  <path fill="#CCC" stroke="#000" stroke-width=".667" d="M12.767 110.837v-8.032c0-6.383 2.92-12.416 7.926-16.376L75.82 42.82c14.02-11.09 33.822-11.09 47.84 0l55.64 44.013c5.004 3.957 7.922 9.987 7.922 16.366v8.03c0 6.38-2.918 12.41-7.92 16.37l-55.126 43.603c-14.026 11.096-33.84 11.096-47.867 0l-55.615-43.99c-5.006-3.962-7.925-9.995-7.925-16.378z"/>
  <path fill="#fff" stroke="#000" stroke-width=".667" d="M12.767 102.804v-8.032c0-6.383 2.92-12.416 7.926-16.376l55.127-43.61c14.02-11.09 33.822-11.09 47.84 0L179.3 78.8c5.004 3.957 7.922 9.987 7.922 16.366v8.032c0 6.38-2.918 12.41-7.92 16.368l-55.126 43.606c-14.026 11.096-33.84 11.096-47.867 0l-55.615-43.99c-5.006-3.962-7.925-9.995-7.925-16.378z"/>
  <path fill="#AAA" stroke="#000" stroke-width=".667" d="M12.767 94.87v-8.033c0-6.383 2.92-12.416 7.926-16.376L75.82 26.855c14.02-11.09 33.822-11.09 47.84 0l55.64 44.012c5.004 3.957 7.922 9.987 7.922 16.366v8.034c0 6.38-2.918 12.41-7.92 16.368l-55.126 43.607c-14.026 11.096-33.84 11.096-47.867 0l-55.615-43.99c-5.006-3.962-7.925-9.995-7.925-16.38z"/>
  <path fill="#CCC" stroke="#000" stroke-width=".667" d="M12.767 86.74v-8.033c0-6.383 2.92-12.416 7.926-16.376L75.82 18.725c14.02-11.09 33.822-11.09 47.84 0l55.64 44.012c5.004 3.957 7.922 9.987 7.922 16.366v8.034c0 6.38-2.918 12.41-7.92 16.368l-55.126 43.607c-14.026 11.096-33.84 11.096-47.867 0l-55.615-43.99c-5.006-3.962-7.925-9.995-7.925-16.38z"/>
  <path fill="none" stroke="#000" stroke-width=".6" d="M156 30.542C156 12.642 143.294 0 125.305 0h-70.74c-6.424 0-13.19 3.005-18.368 8.156C31.02 13.308 28 20.04 28 26.433V97.44C28 115.35 40.713 128 58.712 128h70.74c6.42 0 13.182-3.003 18.356-8.15 5.174-5.15 8.192-11.88 8.192-18.267v-71.04z" transform="matrix(.7793 -.6165 .7832 .6196 -21.824 95.97)"/>
  <path fill="#fff" stroke="#000" stroke-width="26.48" stroke-miterlimit="1.414" d="M988.782 4266.67c-61.73.01-101.768-47.57-93.295-110.88 43.477-331.61 95.6-620.89 177.453-766.89-276.336-21.16-434.798-292.38-244.768-581.9v-161.64l106.22 73.89c288.058 34.52 497.578 3.68 604.998-112.14 50.14-53.66 68.82-125.13 46.91-179.5-96.75-227.02-403.57-254.7-882.82-119.39l-36.948 124.7-106.22-124.7c-240.994 70.08-301.126-112.6-258.624-438.73-252.43-371.76 132.922-663.51 729.692-623.47 14.94-219.71 170.09-401.176 531.1-526.486C1756.24 105.35 2659.01 82.614 3933.86 370.26c31.23 7.06 47.83 36.563 40.16 71.378-8.38 38.067-19.4 88.075-28.66 130.095-10.92 49.6 8.46 93.308 49.07 110.673 84.43 36.1 157.9 75.072 221.94 116.47 32 21.183 50.13 57.324 50.13 99.916.17 418.478.17 2701.208.17 2701.208 0 368.19-298.48 666.67-666.67 666.67H988.782zm556.688-3038.55c-1.78-2.62-1.5-6.51.73-9.87 2.23-3.35 5.97-5.53 9.5-5.53 64.86-.01 264.24-.01 327.44-.01 4.48 0 8.12 2.21 9.83 5.93 1.71 3.73 1.27 8.54-1.17 12.95-30.52 55.37-46.91 102.45-118.69 137.08-14.13 7.74-29.47 9.09-41.38 3.64-92.72-39.61-147.94-89.88-186.26-144.19z" transform="matrix(.0178 -.0138 .0178 .0138 19.14 80.417)"/>
</svg>
