<?xml version="1.0" encoding="UTF-8" standalone="no"?>
<!DOCTYPE svg PUBLIC "-//W3C//DTD SVG 1.1//EN" "http://www.w3.org/Graphics/SVG/1.1/DTD/svg11.dtd">
<svg width="100%" height="100%" viewBox="0 0 200 200" version="1.1" xmlns="http://www.w3.org/2000/svg" xmlns:xlink="http://www.w3.org/1999/xlink" xml:space="preserve" style="fill-rule:evenodd;clip-rule:evenodd;stroke-linejoin:round;stroke-miterlimit:1.41421;">
    <g transform="matrix(1,0,0,1,-1540,0)">
        <g id="V5-lines-light" transform="matrix(1.05695,0,0,1.02149,1315.11,0)">
            <rect x="212.776" y="0" width="189.224" height="195.792" style="fill:none;"/>
            <g transform="matrix(0.899727,0,0,0.930958,-122.377,-170.619)">
                <g id="Icon">
                    <path id="Outline-logo" d="M570.237,261.869C570.305,262.983 570.302,264.098 570.228,265.21C570.243,269.571 570.253,273.932 570.259,278.293C570.294,279.058 570.295,279.825 570.262,280.59C570.267,285.182 570.267,289.773 570.262,294.364C570.295,295.123 570.294,295.882 570.26,296.64C570.253,301.715 570.24,306.79 570.222,311.865C570.139,319.623 566.452,327.235 560.423,332.11C541.988,346.8 523.489,361.409 504.962,375.982C489.166,388.274 466.558,388.201 450.851,375.982C432.164,361.278 413.499,346.545 394.904,331.725C388.867,326.843 385.185,319.226 385.101,311.47C385.083,306.422 385.072,301.375 385.065,296.327C385.028,295.53 385.027,294.732 385.063,293.935C385.059,289.383 385.059,284.831 385.063,280.28C385.027,279.477 385.028,278.672 385.066,277.869L385.066,277.869C385.071,273.528 385.081,269.187 385.095,264.845C385.028,263.855 385.019,262.861 385.066,261.869L385.136,261.869C385.503,254.518 389.194,247.393 394.904,242.776C413.339,228.086 431.839,213.477 450.366,198.903C457.983,192.976 467.511,189.657 477.183,189.583C477.333,189.582 477.483,189.582 477.634,189.583C487.304,189.657 496.834,192.976 504.451,198.903C523.148,213.611 541.818,228.355 560.423,243.18C566.018,247.704 569.706,254.648 570.164,261.869L570.237,261.869ZM390.429,310.957L390.435,311.582C390.544,317.659 393.412,323.604 398.126,327.472C416.638,342.441 435.427,357.062 454.138,371.782C467.925,382.509 487.891,382.507 501.676,371.782C520.224,357.19 538.85,342.696 557.201,327.857C561.897,324.004 564.778,318.069 564.887,311.976L564.893,311.342C563.626,312.994 562.136,314.532 560.423,315.917C541.991,330.61 523.489,345.216 504.962,359.79C489.498,371.819 466.422,371.905 450.851,359.789C432.163,345.086 413.498,330.353 394.904,315.532C393.188,314.145 391.696,312.606 390.429,310.957ZM390.385,294.9C390.326,300.932 392.897,306.988 398.126,311.279C416.638,326.248 435.427,340.87 454.138,355.589C467.664,366.113 488.244,366.039 501.676,355.589C520.224,340.998 538.85,326.503 557.201,311.664C562.404,307.394 564.994,301.332 564.938,295.284C563.661,296.958 562.156,298.516 560.423,299.917C541.991,314.61 523.489,329.216 504.962,343.79C489.498,355.819 466.422,355.905 450.851,343.789C432.163,329.086 413.498,314.353 394.904,299.532C393.168,298.129 391.662,296.571 390.385,294.9ZM390.385,278.9C390.326,284.932 392.897,290.988 398.126,295.279C416.638,310.248 435.427,324.87 454.138,339.589C467.664,350.113 488.244,350.039 501.676,339.589C520.224,324.998 538.85,310.503 557.201,295.664C562.404,291.394 564.994,285.332 564.938,279.284C563.661,280.958 562.156,282.516 560.423,283.917C541.991,298.61 523.489,313.216 504.962,327.79C489.498,339.819 466.422,339.905 450.851,327.789C432.163,313.086 413.498,298.353 394.904,283.532C393.168,282.129 391.662,280.571 390.385,278.9ZM564.901,264.72L564.887,263.314C564.778,257.221 561.897,251.286 557.201,247.433C538.681,232.458 519.883,217.829 501.164,203.104C494.368,197.815 485.84,194.894 477.21,194.916C468.713,194.981 460.344,197.896 453.652,203.103C435.104,217.695 416.477,232.19 398.126,247.029C393.412,250.897 390.544,256.842 390.435,262.919L390.421,264.339C390.752,269.884 393.313,275.33 398.126,279.279C416.638,294.248 435.427,308.87 454.138,323.589C467.664,334.113 488.244,334.039 501.676,323.589C520.224,308.998 538.85,294.503 557.201,279.664C561.992,275.733 564.567,270.281 564.901,264.72ZM474.474,210.277C475.015,210.314 475.335,210.352 475.884,210.492C477.405,210.88 478.626,211.757 479.489,212.778L480.193,213.63C480.483,213.549 480.775,213.472 481.067,213.397C481.349,213.325 481.63,213.254 481.913,213.186C483.354,212.843 484.851,212.48 486.364,212.406C488.403,212.307 490.358,213.065 491.82,214.108C493.217,215.159 494.828,216.427 496.205,217.493C498.354,219.156 500.506,220.817 502.657,222.479C515.137,232.124 527.616,241.77 540.096,251.416C540.294,251.571 540.293,251.57 540.489,251.728C541.993,252.966 543.277,254.349 544.288,255.857C547.89,261.228 547.948,267.755 544.627,273.213C543.544,274.993 542.049,276.615 540.287,278.03C524.792,290.16 509.15,302.1 493.581,314.134C492.964,314.6 492.274,314.999 491.495,315.292C490.999,315.478 490.467,315.619 489.926,315.704C489.384,315.79 488.857,315.819 488.306,315.796C486.189,315.708 484.363,314.775 483.051,313.537C482.681,313.171 482.318,312.799 481.954,312.429C479.104,309.517 476.289,306.557 473.963,303.373C473.797,303.412 473.797,303.412 473.631,303.449C472.503,303.688 471.352,303.823 470.182,303.822C469.228,303.821 468.274,303.732 467.347,303.558C466.669,303.431 465.938,303.243 465.302,303.022C464.508,302.747 463.818,302.448 463.105,302.062C460.095,300.43 458.12,297.939 456.989,295.274L455.365,294.019C455.11,293.803 455.102,293.813 454.867,293.575L454.832,293.6C454.152,293.991 453.446,294.296 452.596,294.397C452.172,294.447 452.066,294.431 451.639,294.423L450.014,294.323C449.901,294.416 449.901,294.415 449.787,294.506L449.628,294.628C448.874,295.184 448.058,295.632 447.134,296.005C446.628,296.208 446.062,296.353 445.509,296.456C445.064,296.538 444.618,296.588 444.16,296.609C440.681,296.761 437.561,295.08 435.204,293.267C434.875,293.014 434.548,292.759 434.233,292.495C433.816,292.144 433.407,291.786 433.009,291.422L432.89,291.313C432.737,291.277 432.584,291.24 432.432,291.203C432.279,291.163 432.125,291.123 431.972,291.081C430.588,290.69 429.272,290.163 428.1,289.468C427.007,288.821 426.049,288.042 425.265,287.167C424.539,286.357 423.963,285.47 423.537,284.542C423.124,283.643 422.866,282.713 422.711,281.767C421.932,277.018 424.541,272.231 428.145,268.488C428.789,267.819 429.373,267.254 430.081,266.626C430.033,266.512 429.989,266.396 429.944,266.281C428.337,261.948 429.247,257.408 431.279,253.254L431.347,253.116C431.267,252.916 431.267,252.916 431.19,252.716C431.115,252.514 431.115,252.514 431.044,252.311C430.649,251.144 430.381,249.955 430.279,248.751C430.18,247.587 430.213,246.419 430.382,245.26C431.235,239.375 435.434,234.126 440.423,229.778C441.383,228.94 442.346,228.139 443.368,227.346C444.64,226.36 445.961,225.383 447.306,224.456C449.328,223.062 450.59,222.249 452.698,220.938C455.21,219.375 457.816,217.903 460.439,216.455C463.909,214.538 467.493,212.729 471.094,210.965C471.218,210.906 471.218,210.907 471.343,210.85C472.235,210.472 473.168,210.281 474.188,210.268C474.283,210.271 474.379,210.274 474.474,210.277ZM474.076,215.603C473.855,215.615 473.645,215.663 473.443,215.754C472.78,216.068 472.13,216.398 471.476,216.723C468.227,218.343 464.996,220.004 461.865,221.759C459.208,223.248 457.566,224.197 455.002,225.784C453.27,226.857 451.56,227.993 449.912,229.141C448.664,230.01 447.444,230.924 446.268,231.85C445.266,232.64 444.377,233.394 443.441,234.23C442.756,234.842 442.077,235.499 441.443,236.143C441.021,236.572 440.348,237.295 439.968,237.746C437.32,240.889 435.149,244.57 435.604,248.417C435.683,249.081 435.788,249.651 435.995,250.299C436.319,251.31 436.804,252.275 437.419,253.2C437.29,253.406 437.164,253.613 437.039,253.822C435.125,257.06 433.677,260.741 434.896,264.293C435.053,264.753 435.314,265.264 435.576,265.694C436.029,266.44 436.641,267.128 437.337,267.751C437.074,267.93 437.074,267.93 436.812,268.111C435.749,268.861 434.938,269.488 433.968,270.312C433.274,270.902 432.619,271.534 432.001,272.173C431.613,272.574 431.031,273.232 430.697,273.66C430.414,274.024 430.138,274.392 429.879,274.767C429.674,275.065 429.485,275.37 429.305,275.677C427.89,278.089 427.147,281.147 429.146,283.504C429.442,283.853 429.788,284.169 430.178,284.457C430.654,284.81 431.201,285.125 431.78,285.371C432.932,285.859 434.159,286.174 435.446,286.368C435.681,286.602 435.68,286.602 435.917,286.834C436.366,287.266 436.827,287.692 437.304,288.106C437.665,288.42 438.043,288.722 438.428,289.018C438.71,289.235 439.005,289.442 439.305,289.645C439.547,289.808 439.8,289.963 440.055,290.115C441.533,290.994 443.637,291.743 445.431,290.943C445.829,290.765 446.088,290.613 446.421,290.366C447.008,289.93 447.464,289.393 447.858,288.846L451.969,289.1L450.407,286.876C450.596,286.616 450.787,286.356 450.98,286.097C452.892,283.553 455.027,281.015 457.758,278.943C459.538,277.592 461.758,276.299 464.299,276.01C465.305,275.896 466.313,275.932 467.298,276.129C467.665,276.203 468.217,276.344 468.556,276.492C470.437,277.316 470.906,279.309 470.467,280.818C469.989,282.467 468.887,283.902 467.511,285.197C465.85,286.758 463.878,288.104 461.833,289.354L458.627,289.799C459.609,290.522 460.593,291.246 461.504,292.023C461.595,292.1 461.561,292.227 461.591,292.329C462.07,293.863 462.919,295.31 464.314,296.479C464.724,296.823 465.275,297.184 465.779,297.444C466.344,297.735 466.91,297.959 467.549,298.135C468.153,298.302 468.781,298.409 469.418,298.458C471.922,298.648 474.328,297.897 476.218,296.662C476.265,296.787 476.314,296.912 476.366,297.036C477.219,299.024 478.666,300.866 480.143,302.606C482.21,305.042 484.434,307.405 486.756,309.7C486.803,309.744 486.85,309.787 486.899,309.829C487.578,310.385 488.564,310.631 489.509,310.337C489.792,310.249 490.07,310.094 490.292,309.935C505.989,298.085 521.487,285.974 536.974,273.851C538.271,272.809 539.355,271.623 540.149,270.314C542.235,266.876 542.259,262.781 540.182,259.336C539.379,258.006 538.29,256.801 536.974,255.745C529.886,250.196 522.712,244.714 515.575,239.203C506.626,232.293 497.685,225.376 488.739,218.464C488.017,217.92 487.073,217.634 486.068,217.779C485.772,217.829 485.475,217.882 485.179,217.937C483.95,218.173 483.02,218.396 481.821,218.714C480.871,218.965 480.891,218.995 479.948,219.258C479.883,219.275 479.818,219.29 479.753,219.303C478.758,219.482 477.833,219.081 477.267,218.459C476.607,217.705 476.013,216.896 475.35,216.145C475.09,215.863 474.726,215.659 474.278,215.609C474.211,215.605 474.144,215.603 474.076,215.603ZM463.369,281.751C462.042,282.329 460.874,283.217 459.799,284.175L459.698,284.266L459.977,284.227C460.209,284.081 460.437,283.93 460.666,283.779C461.427,283.268 462.17,282.734 462.885,282.159C462.986,282.076 463.087,281.992 463.187,281.908C463.235,281.868 463.282,281.827 463.33,281.786C463.343,281.775 463.387,281.743 463.369,281.751ZM446.076,260.079C446.659,259.57 451.298,255.959 451.935,255.553C451.957,255.541 451.979,255.531 452.003,255.523C452.027,255.516 452.05,255.511 452.075,255.509C452.094,255.508 452.093,255.508 452.112,255.508C452.234,255.517 452.335,255.586 452.388,255.697C452.517,256.017 452.643,256.337 452.763,256.658C453.072,257.516 453.261,259.446 452.079,259.844C451.924,259.891 451.77,259.937 451.614,259.982L451.4,260.041L451.333,260.059L449.95,260.359C448.732,260.557 447.379,260.657 446.154,260.429C446.135,260.424 446.118,260.417 446.1,260.408C445.975,260.331 445.968,260.17 446.076,260.079Z" style="fill:rgb(144,144,144);"/>
                </g>
            </g>
        </g>
    </g>
</svg>
