<?xml version="1.0" encoding="UTF-8" standalone="no"?>
<!DOCTYPE svg PUBLIC "-//W3C//DTD SVG 1.1//EN" "http://www.w3.org/Graphics/SVG/1.1/DTD/svg11.dtd">
<svg width="100%" height="100%" viewBox="0 0 200 200" version="1.1" xmlns="http://www.w3.org/2000/svg" xmlns:xlink="http://www.w3.org/1999/xlink" xml:space="preserve" style="fill-rule:evenodd;clip-rule:evenodd;stroke-linecap:round;stroke-linejoin:round;stroke-miterlimit:1.5;">
    <g transform="matrix(1,0,0,1,-1100,0)">
        <g id="V5-outline" transform="matrix(1.05695,0,0,1.02149,875.107,0)">
            <rect x="212.776" y="0" width="189.224" height="195.792" style="fill:none;"/>
            <g id="Icon" transform="matrix(0.946121,0,0,0.978962,-619.811,0)">
                <g transform="matrix(0.803213,0,0,0.803213,652.285,43.8819)">
                    <path d="M299.406,103.36C299.406,101.667 299.406,95.054 299.406,93.36C299.406,85.413 303.041,77.902 309.274,72.972C329.256,57.164 356.977,35.235 377.908,18.678C395.362,4.871 420.017,4.871 437.471,18.678C458.574,35.372 486.601,57.542 506.741,73.475C512.97,78.402 516.603,85.909 516.603,93.851C516.603,95.545 516.603,102.158 516.603,103.851C516.603,111.794 512.97,119.3 506.741,124.228C486.763,140.032 459.042,161.96 438.108,178.52C420.645,192.335 395.976,192.335 378.513,178.52C357.417,161.832 329.408,139.676 309.274,123.749C303.041,118.818 299.406,111.307 299.406,103.36Z" style="fill:white;stroke:black;stroke-width:0.83px;"/>
                </g>
                <g transform="matrix(0.803213,0,0,0.803213,652.285,35.8498)">
                    <path d="M299.406,103.36C299.406,101.667 299.406,95.054 299.406,93.36C299.406,85.413 303.041,77.902 309.274,72.972C329.256,57.164 356.977,35.235 377.908,18.678C395.362,4.871 420.017,4.871 437.471,18.678C458.574,35.372 486.601,57.542 506.741,73.475C512.97,78.402 516.603,85.909 516.603,93.851C516.603,95.545 516.603,102.158 516.603,103.851C516.603,111.794 512.97,119.3 506.741,124.228C486.763,140.032 459.042,161.96 438.108,178.52C420.645,192.335 395.976,192.335 378.513,178.52C357.417,161.832 329.408,139.676 309.274,123.749C303.041,118.818 299.406,111.307 299.406,103.36Z" style="fill:rgb(170,170,170);stroke:black;stroke-width:0.83px;"/>
                </g>
                <g transform="matrix(0.803213,0,0,0.803213,652.285,27.8177)">
                    <path d="M299.406,103.36C299.406,101.667 299.406,95.054 299.406,93.36C299.406,85.413 303.041,77.902 309.274,72.972C329.256,57.164 356.977,35.235 377.908,18.678C395.362,4.871 420.017,4.871 437.471,18.678C458.574,35.372 486.601,57.542 506.741,73.475C512.97,78.402 516.603,85.909 516.603,93.851C516.603,95.545 516.603,102.158 516.603,103.851C516.603,111.794 512.97,119.3 506.741,124.228C486.763,140.032 459.042,161.96 438.108,178.52C420.645,192.335 395.976,192.335 378.513,178.52C357.417,161.832 329.408,139.676 309.274,123.749C303.041,118.818 299.406,111.307 299.406,103.36Z" style="fill:rgb(204,204,204);stroke:black;stroke-width:0.83px;"/>
                </g>
                <g transform="matrix(0.803213,0,0,0.803213,652.285,19.7855)">
                    <path d="M299.406,103.36C299.406,101.667 299.406,95.054 299.406,93.36C299.406,85.413 303.041,77.902 309.274,72.972C329.256,57.164 356.977,35.235 377.908,18.678C395.362,4.871 420.017,4.871 437.471,18.678C458.574,35.372 486.601,57.542 506.741,73.475C512.97,78.402 516.603,85.909 516.603,93.851C516.603,95.545 516.603,102.158 516.603,103.851C516.603,111.794 512.97,119.3 506.741,124.228C486.763,140.032 459.042,161.96 438.108,178.52C420.645,192.335 395.976,192.335 378.513,178.52C357.417,161.832 329.408,139.676 309.274,123.749C303.041,118.818 299.406,111.307 299.406,103.36Z" style="fill:white;stroke:black;stroke-width:0.83px;"/>
                </g>
                <g transform="matrix(0.803213,0,0,0.803213,652.285,11.8498)">
                    <path d="M299.406,103.36C299.406,101.667 299.406,95.054 299.406,93.36C299.406,85.413 303.041,77.902 309.274,72.972C329.256,57.164 356.977,35.235 377.908,18.678C395.362,4.871 420.017,4.871 437.471,18.678C458.574,35.372 486.601,57.542 506.741,73.475C512.97,78.402 516.603,85.909 516.603,93.851C516.603,95.545 516.603,102.158 516.603,103.851C516.603,111.794 512.97,119.3 506.741,124.228C486.763,140.032 459.042,161.96 438.108,178.52C420.645,192.335 395.976,192.335 378.513,178.52C357.417,161.832 329.408,139.676 309.274,123.749C303.041,118.818 299.406,111.307 299.406,103.36Z" style="fill:rgb(170,170,170);stroke:black;stroke-width:0.83px;"/>
                </g>
                <g transform="matrix(0.803213,0,0,0.803213,652.285,3.72127)">
                    <path d="M299.406,103.36C299.406,101.667 299.406,95.054 299.406,93.36C299.406,85.413 303.041,77.902 309.274,72.972C329.256,57.164 356.977,35.235 377.908,18.678C395.362,4.871 420.017,4.871 437.471,18.678C458.574,35.372 486.601,57.542 506.741,73.475C512.97,78.402 516.603,85.909 516.603,93.851C516.603,95.545 516.603,102.158 516.603,103.851C516.603,111.794 512.97,119.3 506.741,124.228C486.763,140.032 459.042,161.96 438.108,178.52C420.645,192.335 395.976,192.335 378.513,178.52C357.417,161.832 329.408,139.676 309.274,123.749C303.041,118.818 299.406,111.307 299.406,103.36Z" style="fill:rgb(204,204,204);stroke:black;stroke-width:0.83px;"/>
                </g>
                <g transform="matrix(0.779302,-0.616469,0.783198,0.619552,858.176,95.9704)">
                    <path d="M156,30.542C156,12.643 143.294,0 125.305,0C103.732,0 75.16,0 54.565,0C48.141,0 41.374,3.005 36.197,8.156C31.02,13.308 28,20.04 28,26.433C28,47.081 28,75.806 28,97.441C28,115.351 40.713,128 58.712,128C80.288,128 108.859,128 129.451,128C135.871,128 142.634,124.997 147.808,119.849C152.982,114.7 156,107.971 156,101.583C156,80.928 156,52.185 156,30.542Z" style="fill:none;stroke:black;stroke-width:0.6px;"/>
                </g>
                <g transform="matrix(0.0177993,-0.0137583,0.0177993,0.0137583,899.139,80.4173)">
                    <path d="M988.782,4266.67C927.053,4266.68 887.014,4219.1 895.487,4155.79C938.964,3824.18 991.086,3534.9 1072.94,3388.9C796.604,3367.74 638.142,3096.52 828.172,2807L828.172,2645.36L934.393,2719.25C1222.45,2753.77 1431.97,2722.93 1539.39,2607.11C1589.53,2553.45 1608.21,2481.98 1586.3,2427.61C1489.55,2200.59 1182.73,2172.91 703.479,2308.22L666.532,2432.92L560.312,2308.22C319.318,2378.3 259.186,2195.62 301.688,1869.49C49.257,1497.73 434.61,1205.98 1031.38,1246.02C1046.32,1026.31 1201.47,844.844 1562.48,719.534C1756.24,105.35 2659.01,82.613 3933.86,370.261C3965.09,377.32 3981.69,406.823 3974.02,441.638C3965.64,479.705 3954.62,529.713 3945.36,571.733C3934.44,621.332 3953.82,665.041 3994.43,682.406C4078.86,718.505 4152.33,757.478 4216.37,798.876C4248.37,820.059 4266.5,856.2 4266.5,898.792C4266.67,1317.27 4266.67,3600 4266.67,3600C4266.67,3968.19 3968.19,4266.67 3600,4266.67C3600,4266.67 1492.48,4266.67 988.782,4266.67ZM1545.47,1228.12C1543.69,1225.5 1543.97,1221.61 1546.2,1218.25C1548.43,1214.9 1552.17,1212.72 1555.7,1212.72C1620.56,1212.71 1819.94,1212.71 1883.14,1212.71C1887.62,1212.71 1891.26,1214.92 1892.97,1218.64C1894.68,1222.37 1894.24,1227.18 1891.8,1231.59C1861.28,1286.96 1844.89,1334.04 1773.11,1368.67C1758.98,1376.41 1743.64,1377.76 1731.73,1372.31C1639.01,1332.7 1583.79,1282.43 1545.47,1228.12Z" style="fill:white;stroke:black;stroke-width:26.48px;stroke-miterlimit:1.41421;"/>
                </g>
            </g>
        </g>
    </g>
</svg>
